<?xml version="1.0" standalone="no"?>
<!DOCTYPE svg PUBLIC "-//W3C//DTD SVG 20010904//EN"
 "http://www.w3.org/TR/2001/REC-SVG-20010904/DTD/svg10.dtd">
<svg version="1.0" xmlns="http://www.w3.org/2000/svg"
 width="49.000000pt" height="49.000000pt" viewBox="0 0 49.000000 49.000000"
 preserveAspectRatio="xMidYMid meet">

<g transform="translate(0.000000,49.000000) scale(0.100000,-0.100000)"
fill="#000000" stroke="none">
<path d="M102 257 c-9 -11 -1 -25 39 -70 28 -31 57 -57 65 -57 29 0 12 37 -39
88 -44 43 -56 51 -65 39z"/>
<path d="M30 231 c0 -22 148 -183 163 -178 6 2 12 8 14 14 4 12 -153 183 -168
183 -5 0 -9 -9 -9 -19z"/>
<path d="M320 129 c0 -14 11 -18 66 -21 63 -3 86 4 68 22 -5 4 -37 10 -71 12
-55 4 -63 2 -63 -13z"/>
<path d="M232 68 c5 -15 69 -26 156 -27 62 -1 72 5 50 27 -17 17 -211 17 -206
0z"/>
</g>
</svg>
